<svg width="93" height="93" viewBox="0 0 93 93" fill="none" xmlns="http://www.w3.org/2000/svg">
<g clip-path="url(#clip0_1716_2969)">
<path d="M46.7243 44.3472L37.0278 80.535C37.0278 80.535 54.7965 74.0396 66.1248 73.7715C66.1248 73.7715 72.5767 51.5191 82.0813 42.0752L46.7243 44.3472Z" fill="#076170"/>
<path d="M47.8569 77.5636C47.8569 77.5636 57.023 45.6385 58.5928 44.3462C60.1932 42.9397 70.4695 43.8579 70.4695 43.8579C70.4695 43.8579 58.4293 72.8106 58.8226 74.996C58.9673 74.9124 54.3988 75.5236 47.8569 77.5636Z" fill="#B3690E"/>
<path d="M37.0278 80.535C37.0278 80.535 28.9113 68.8166 13.8409 59.7621C13.8409 59.7621 20.0214 41.7193 17.8476 26.0874L46.7243 44.3473L37.0278 80.535Z" fill="#3BAACF"/>
<path d="M19.6667 64.5041C19.6667 64.5041 28.2159 70.9548 28.5644 72.3941C28.9129 73.8334 37.9058 40.2712 37.9058 40.2712C37.9058 40.2712 25.7566 33.1006 24.615 32.7947C24.615 32.7947 24.9705 47.4499 19.6667 64.5041Z" fill="#E9C243"/>
<path opacity="0.3" d="M46.7243 44.3473L45.1031 50.3976L77.1332 48.213C78.6052 45.9156 80.275 43.7936 81.9672 42.0447L46.7243 44.3473ZM18.2201 32.9167C18.2304 30.5947 18.0961 28.3564 17.7334 26.0569L46.6101 44.3167L44.989 50.367L18.2201 32.9167Z" fill="black"/>
<path d="M16.0784 22.1874L46.6861 38.0969L84.9702 39.0563L50.2158 27.6639L16.0784 22.1874Z" fill="#4FC7E8"/>
<path d="M16.0784 22.1875L16.777 30.0829L44.4226 46.5446L46.6861 38.097L16.0784 22.1875Z" fill="#3BAACF"/>
<path d="M44.4226 46.5445C44.4226 46.5445 74.2837 43.7787 81.1413 45.1268C81.1413 45.1268 82.6685 41.2537 84.9396 39.1705L46.6861 38.0969L44.4226 46.5445Z" fill="#076170"/>
<path d="M25.2006 26.9564L30.1393 35.0091L38.3324 33.6562L49.8055 33.3045L62.6195 38.4509L69.216 41.6867L75.972 38.8476L25.2006 26.9564Z" fill="#F0AE11"/>
<path d="M38.3324 33.6562L49.8055 33.3045L62.6195 38.4509L75.972 38.8475L50.1605 29.2396L25.2006 26.9563L38.3324 33.6562Z" fill="#F0AE11"/>
<path d="M25.2006 26.9563L23.0594 34.9473L35.4369 42.1791L38.3324 33.6561L25.2006 26.9563Z" fill="#F8D048"/>
<path d="M62.6195 38.451L60.7984 46.1607L73.1317 45.7948L75.972 38.8476L62.6195 38.451Z" fill="#C47116"/>
<path d="M56.8652 31.1587C56.8652 31.1587 59.0064 23.1677 68.635 18.2841C68.635 18.2841 63.4957 18.7423 61.3349 17.6739C58.7175 16.4832 58.6913 12.9279 58.6913 12.9279C58.6913 12.9279 48.2161 25.5376 49.6673 27.8841C51.088 30.3448 56.8652 31.1587 56.8652 31.1587Z" fill="#EA9F07"/>
<path d="M45.4511 33.1167C45.4511 33.1167 43.4461 22.7912 35.2558 15.4578C35.2558 15.4578 42.8595 16.7611 44.8166 16.3067C47.2608 15.8604 49.2813 13.343 49.2813 13.343C49.2813 13.343 53.6464 29.9291 52.3803 31.9146C51.1142 33.9 45.4511 33.1167 45.4511 33.1167Z" fill="#F8D048"/>
<path d="M50.521 33.3739C50.521 33.3739 42.8233 34.2478 33.9191 31.8619C15.228 26.7313 16.2118 12.5572 34.3687 18.7682C49.2457 23.978 50.521 33.3739 50.521 33.3739Z" fill="#EA9F07"/>
<path d="M49.2959 32.9233C49.2959 32.9233 57.3317 35.8106 65.5002 35.9194C82.5833 36.0921 79.8895 22.4009 63.4443 23.5003C49.9836 24.4205 49.2959 32.9233 49.2959 32.9233Z" fill="#F0AE11"/>
<path d="M50.5211 33.3741C50.5211 33.3741 45.7243 33.9241 40.1306 32.4253C28.4866 29.3053 29.0377 20.3989 40.3535 24.2874C49.645 27.5112 50.5211 33.3741 50.5211 33.3741Z" fill="#824000"/>
<path d="M50.521 33.374C50.521 33.374 56.1065 35.36 61.839 35.4278C73.791 35.5715 71.8308 25.9921 60.4943 26.7475C51.023 27.3908 50.521 33.374 50.521 33.374Z" fill="#824000"/>
</g>
<defs>
<clipPath id="clip0_1716_2969">
<rect width="75.6377" height="75.6377" fill="white" transform="translate(19.5765) rotate(15)"/>
</clipPath>
</defs>
</svg>
