<svg
	width="133"
	height="56"
	viewBox="0 0 133 56"
	fill="none"
	xmlns="http://www.w3.org/2000/svg"
>
	<path
		fillRule="evenodd"
		clipRule="evenodd"
		d="M61.472 43.3866V27.4007H69.7226C73.1035 27.4007 75.9571 26.2679 78.2835 24.0336L78.8418 23.4672C83.0912 18.8414 82.812 11.6351 78.2835 7.35544C76.0192 5.08973 72.9174 3.86247 69.7226 3.9254H56.4782V43.3866H61.472ZM61.4726 22.5547V8.77157H69.8486C71.6479 8.77157 73.3542 9.46387 74.6261 10.7226C77.325 13.3659 77.3871 17.7715 74.7812 20.5092C73.5093 21.8624 71.71 22.6176 69.8486 22.5547H61.4726ZM102.136 18.4951C99.9957 16.5126 97.0801 15.5057 93.389 15.5057C88.6433 15.5057 85.0763 17.2679 82.719 20.7609L87.1235 23.5615C88.7364 21.1699 90.9386 19.9741 93.7302 19.9741C95.4982 19.9741 97.2041 20.635 98.5379 21.8308C99.8406 22.9636 100.585 24.6 100.585 26.3307V27.4951C98.6619 26.4251 96.2426 25.8587 93.2649 25.8587C89.791 25.8587 86.9994 26.6769 84.9212 28.3447C82.8431 30.0125 81.7885 32.2153 81.7885 35.016C81.7264 37.5649 82.812 39.988 84.7351 41.6243C86.6892 43.3865 89.1706 44.2677 92.0863 44.2677C95.5292 44.2677 98.2587 42.7257 100.337 39.6418H100.554V43.3865H105.331V26.7398C105.331 23.2468 104.276 20.4776 102.136 18.4951ZM88.5821 38.4147C87.5584 37.6595 86.9379 36.4322 86.9379 35.1105C86.9379 33.6315 87.6204 32.4043 88.9544 31.4287C90.3194 30.4532 92.0256 29.9497 94.0421 29.9497C96.8341 29.9183 99.0056 30.5476 100.557 31.8064C100.557 33.9462 99.7191 35.8028 98.075 37.3762C96.5859 38.8867 94.5694 39.7364 92.4599 39.7364C91.0639 39.7678 89.6989 39.2958 88.5821 38.4147ZM116.063 55.2501L132.75 16.3867H127.322L119.599 35.7712H119.506L111.596 16.3867H106.168L117.117 41.6558L110.914 55.2501H116.063Z"
		fill="#3C4043"
	/>
	<path
		d="M44.2316 23.9389C44.2316 22.3969 44.1075 20.855 43.8594 19.3445H22.7986V28.0612H34.8644C34.3681 30.8619 32.7552 33.3793 30.3978 34.9527V40.617H37.5939C41.8123 36.6835 44.2316 30.8619 44.2316 23.9389Z"
		fill="#4285F4"
	/>
	<path
		d="M22.7995 46.0926C28.8169 46.0926 33.9038 44.0786 37.5948 40.6171L30.3988 34.9528C28.3827 36.3374 25.8082 37.1242 22.7995 37.1242C16.9683 37.1242 12.0365 33.1277 10.2685 27.7781H2.85535V33.6312C6.63947 41.278 14.3628 46.0926 22.7995 46.0926Z"
		fill="#34A853"
	/>
	<path
		d="M10.2692 27.7781C9.33852 24.9774 9.33852 21.925 10.2692 19.0929V13.2712H2.85485C-0.340452 19.6593 -0.340452 27.2117 2.85485 33.5997L10.2692 27.7781Z"
		fill="#FBBC04"
	/>
	<path
		d="M22.7995 9.74693C25.9943 9.68399 29.0651 10.9113 31.3603 13.1455L37.7499 6.66304C33.6867 2.82391 28.3517 0.715533 22.7995 0.778469C14.3628 0.778469 6.63947 5.62458 2.85535 13.2714L10.2685 19.1245C12.0365 13.7434 16.9683 9.74693 22.7995 9.74693Z"
		fill="#EA4335"
	/>
</svg>