<svg
	width="123"
	height="135"
	viewBox="0 0 123 135"
	fill="none"
	xmlns="http://www.w3.org/2000/svg"
>
	<g filter="url(#filter0_d_941_2903)">
		<g clipPath="url(#clip0_941_2903)">
			<path
				d="M100.414 78.2936L61.7745 83.0483C60.9413 83.1508 60.181 82.5571 60.0785 81.7239L57.1967 58.3042C57.0937 57.4675 57.687 56.7037 58.5271 56.6004L97.1562 51.847C97.9929 51.7441 98.7566 52.3373 98.86 53.1774L101.742 76.5972C101.789 76.998 101.677 77.4014 101.428 77.7193C101.179 78.0371 100.815 78.2436 100.414 78.2936Z"
				fill="#2E7D32"
			/>
			<path
				d="M99.9388 74.0596L61.2091 78.8254C61.0167 78.849 60.8215 78.8346 60.6347 78.7828C60.4479 78.7311 60.2731 78.643 60.1203 78.5237C59.8118 78.2828 59.6116 77.9292 59.5638 77.5406L57.1967 58.3042C57.0937 57.4675 57.687 56.7037 58.5271 56.6004L97.1562 51.847C97.9929 51.7441 98.7566 52.3373 98.86 53.1774L101.227 72.4139C101.273 72.8028 101.164 73.1942 100.923 73.5026C100.681 73.811 100.327 74.0112 99.9388 74.0596Z"
				fill="#66BB6A"
			/>
			<path
				d="M71.0824 68.962C71.0298 68.535 70.8361 68.1923 70.5017 67.9374C70.1672 67.6826 69.6275 67.4776 68.8867 67.3291C67.8602 67.1488 67.0898 66.8454 66.5787 66.4149C66.0641 65.9848 65.7624 65.3946 65.6705 64.6482C65.5765 63.8845 65.7218 63.2322 66.1064 62.6915C66.4905 62.1473 67.0661 61.784 67.8287 61.595L67.6805 60.3903C67.6587 60.2133 67.7866 60.0495 67.9636 60.0278L68.3559 59.9795C68.533 59.9577 68.6967 60.0856 68.7185 60.2626L68.8676 61.4742C69.662 61.4857 70.3097 61.7373 70.8111 62.2324C71.2606 62.6776 71.5562 63.3037 71.6982 64.1145C71.7248 64.2733 71.6091 64.4214 71.4494 64.4411L70.7308 64.5295C70.578 64.5483 70.4451 64.4413 70.4124 64.2903C70.3088 63.7638 70.1031 63.3521 69.7952 63.0552C69.4353 62.7083 68.9913 62.5656 68.4636 62.6305C67.9117 62.6985 67.5056 62.8929 67.2495 63.2169C66.9929 63.5375 66.8931 63.9586 66.9559 64.4689C67.0145 64.9445 67.2173 65.3037 67.5608 65.5469C67.9044 65.7901 68.4464 65.9842 69.1828 66.1262C69.9192 66.2682 70.5024 66.4537 70.9358 66.6823C71.3657 66.9113 71.7001 67.1944 71.9329 67.5393C72.1656 67.8842 72.3123 68.3032 72.373 68.7962C72.4695 69.5808 72.3112 70.2417 71.898 70.7788C71.4848 71.316 70.8602 71.6819 70.0204 71.8733L70.1442 72.8801C70.166 73.0572 70.0382 73.2209 69.8611 73.2427L69.4723 73.2905C69.2952 73.3123 69.1315 73.1845 69.1097 73.0074L68.9858 72.0006C68.1115 72.0271 67.397 71.8049 66.8413 71.3271C66.3449 70.9018 66.0241 70.2999 65.8829 69.5243C65.8528 69.3659 65.972 69.2173 66.1317 69.1976L66.8572 69.1084C67.003 69.0904 67.1413 69.1827 67.1696 69.3272C67.2723 69.8467 67.4898 70.2393 67.822 70.5051C68.205 70.8104 68.7059 70.9285 69.3308 70.8516C69.9383 70.7768 70.3994 70.572 70.7138 70.2338C71.0203 69.8895 71.1448 69.4689 71.0824 68.962Z"
				fill="white"
			/>
			<path
				d="M70.0524 72.1619L68.985 71.9936L67.8292 61.6266L67.786 61.276L68.8638 61.4711L70.0152 71.8598L70.0524 72.1619Z"
				fill="white"
			/>
			<path
				opacity="0.5"
				d="M87.2112 70.8681C90.7583 70.4316 93.2799 67.2023 92.8434 63.6552C92.407 60.1081 89.1776 57.5865 85.6306 58.0229C82.0835 58.4594 79.5618 61.6887 79.9983 65.2358C80.4348 68.7829 83.6641 71.3045 87.2112 70.8681Z"
				fill="#2E7D32"
			/>
			<path
				d="M92.8842 54.9066C93.4134 56.7446 95.0821 58.0476 96.9936 58.1155L98.2128 68.0236C96.3748 68.5528 95.0718 70.2215 95.0039 72.133L65.4844 75.7654C64.8843 74.0383 63.2717 72.8482 61.4453 72.784L60.2261 62.8759C62.1426 62.3264 63.4737 60.5415 63.4376 58.53L92.8842 54.9066ZM93.4375 54.1337L62.6787 57.9186C62.6915 57.9945 62.7044 58.0705 62.7142 58.1503C62.9667 60.2021 61.5084 62.0696 59.4567 62.3221L60.8335 73.5112C62.8054 73.2686 64.609 74.6079 64.9697 76.5371L95.732 72.7517C95.4796 70.7 96.9378 68.8324 98.9896 68.58L97.6128 57.3908C95.5575 57.6437 93.69 56.1854 93.4375 54.1337Z"
				fill="#2E7D32"
			/>
			<path
				d="M74.021 54.6938L81.6621 53.7536L84.9164 80.2007L77.2753 81.1409L74.021 54.6938Z"
				fill="#FFECB3"
			/>
			<path
				d="M76.7551 76.9124L84.3962 75.9722L84.9166 80.2006L77.2754 81.1409L76.7551 76.9124Z"
				fill="#FFC06C"
			/>
		</g>
		<g clipPath="url(#clip1_941_2903)">
			<path
				d="M88.9296 54.1024L47.0776 84.5082C46.1751 85.1639 44.9091 84.9633 44.2535 84.0608L25.8242 58.6939C25.1658 57.7877 25.3636 56.5179 26.2736 55.8568L68.1144 25.4592C69.0206 24.8008 70.2904 24.9986 70.9515 25.9086L89.3807 51.2756C89.6942 51.7108 89.8227 52.2524 89.7382 52.782C89.6536 53.3117 89.363 53.7863 88.9296 54.1024Z"
				fill="#2E7D32"
			/>
			<path
				d="M85.6511 49.4868L43.7012 79.9637C43.4929 80.1151 43.2567 80.2239 43.0062 80.2841C42.7558 80.3442 42.4959 80.3544 42.2415 80.3141C41.7277 80.2327 41.2673 79.9505 40.9615 79.5297L25.8242 58.6939C25.1658 57.7877 25.3636 56.5179 26.2736 55.8568L68.1144 25.4592C69.0206 24.8008 70.2904 24.9986 70.9515 25.9086L86.0888 46.7444C86.3931 47.1666 86.5179 47.6921 86.4358 48.206C86.3538 48.7198 86.0717 49.1804 85.6511 49.4868Z"
				fill="#66BB6A"
			/>
			<path
				d="M48.827 62.1414C48.491 61.6789 48.0452 61.4053 47.4923 61.3244C46.9395 61.2435 46.1801 61.3528 45.2235 61.6571C43.9141 62.1086 42.8233 62.2519 41.952 62.0806C41.0769 61.912 40.3462 61.4202 39.7589 60.6118C39.1579 59.7845 38.9068 58.9328 39.0056 58.0567C39.1018 57.1768 39.5368 56.3839 40.3016 55.6732L39.3536 54.3683C39.2143 54.1766 39.2575 53.9039 39.4493 53.7646L39.8742 53.4559C40.066 53.3165 40.3386 53.3597 40.478 53.5515L41.4314 54.8639C42.3622 54.3658 43.277 54.2411 44.1787 54.4938C44.9878 54.7218 45.7345 55.2593 46.4216 56.1102C46.5548 56.2777 46.5157 56.5244 46.3427 56.6501L45.5644 57.2156C45.3989 57.3358 45.1754 57.2971 45.0402 57.1426C44.5809 56.5973 44.0766 56.2512 43.5276 56.1043C42.8859 55.9328 42.2779 56.0528 41.7064 56.468C41.1085 56.9024 40.7617 57.3899 40.6726 57.9314C40.5808 58.4693 40.736 59.0229 41.1376 59.5757C41.5118 60.0909 41.9788 60.3778 42.5348 60.4392C43.0907 60.5007 43.8456 60.3774 44.793 60.0682C45.7404 59.7591 46.5377 59.5992 47.1887 59.5859C47.836 59.5753 48.4069 59.689 48.8995 59.9401C49.3922 60.1912 49.8325 60.5837 50.2204 61.1176C50.8378 61.9675 51.0793 62.8376 50.9449 63.7281C50.8105 64.6185 50.3201 65.4459 49.4671 66.2092L50.2593 67.2997C50.3987 67.4915 50.3555 67.7642 50.1637 67.9035L49.7425 68.2095C49.5508 68.3488 49.2781 68.3056 49.1388 68.1138L48.3465 67.0233C47.3474 67.6171 46.3737 67.8189 45.4201 67.6213C44.5693 67.4466 43.8088 66.9534 43.1453 66.1429C43.0083 65.9781 43.0512 65.7286 43.2242 65.603L44.0101 65.032C44.168 64.9173 44.388 64.9355 44.5141 65.0852C44.9679 65.623 45.4735 65.9393 46.0308 66.0343C46.6725 66.1426 47.3308 65.9574 48.0076 65.4656C48.6657 64.9875 49.0699 64.4526 49.2174 63.8571C49.352 63.2595 49.2259 62.6904 48.827 62.1414Z"
				fill="white"
			/>
			<path
				d="M49.6901 66.5241L48.3411 67.0158L40.3225 55.7098L40.0466 55.33L41.4249 54.8628L49.4524 66.1969L49.6901 66.5241Z"
				fill="white"
			/>
			<path
				opacity="0.5"
				d="M68.8018 53.972C72.6438 51.1808 73.4956 45.8035 70.7044 41.9615C67.9131 38.1195 62.5358 37.2677 58.6938 40.0589C54.8519 42.8502 54 48.2275 56.7913 52.0695C59.5825 55.9114 64.9598 56.7633 68.8018 53.972Z"
				fill="#2E7D32"
			/>
			<path
				d="M65.1188 31.7662C66.9174 33.5618 69.696 34.002 71.9616 32.8502L79.7583 43.5821C77.9627 45.3807 77.5226 48.1593 78.6744 50.4248L46.7006 73.654C44.891 72.033 42.2504 71.6879 40.086 72.7892L32.2892 62.0573C34.1631 60.1846 34.561 57.2528 33.224 54.938L65.1188 31.7662ZM65.2643 30.5115L31.9481 54.716C32.012 54.796 32.0758 54.8759 32.1387 54.9624C33.7532 57.1848 33.2606 60.2945 31.0383 61.9091L39.8431 74.0285C41.979 72.4768 44.9377 72.8723 46.5992 74.8824L79.9192 50.6752C78.3046 48.4529 78.7972 45.3431 81.0196 43.7286L72.2147 31.6092C69.9886 33.2265 66.8789 32.7338 65.2643 30.5115Z"
				fill="#2E7D32"
			/>
			<path
				d="M43.0557 43.6645L51.3321 37.6516L72.1435 66.2975L63.8671 72.3104L43.0557 43.6645Z"
				fill="#FFECB3"
			/>
			<path
				d="M60.5398 67.7303L68.8162 61.7175L72.1436 66.2975L63.8672 72.3104L60.5398 67.7303Z"
				fill="#FFC06C"
			/>
		</g>
		<g clipPath="url(#clip2_941_2903)">
			<path
				d="M76.1155 103.906L35.9857 98.3667C35.1204 98.2473 34.5143 97.4471 34.6338 96.5818L37.991 72.2587C38.111 71.3898 38.9116 70.7801 39.7841 70.9006L79.9031 76.4381C80.7721 76.558 81.3817 77.3587 81.2613 78.2312L77.904 102.554C77.8449 102.97 77.6236 103.346 77.2885 103.599C76.9534 103.852 76.5317 103.962 76.1155 103.906Z"
				fill="#2E7D32"
			/>
			<path
				d="M76.7685 99.5206L36.545 93.9687C36.3452 93.9411 36.1528 93.8744 35.9787 93.7725C35.8047 93.6705 35.6524 93.5353 35.5306 93.3745C35.2846 93.0498 35.1778 92.6406 35.2335 92.2371L37.991 72.2587C38.111 71.3898 38.9116 70.7801 39.7841 70.9006L79.9031 76.4381C80.7721 76.558 81.3817 77.3587 81.2613 78.2312L78.5037 98.2096C78.4465 98.6131 78.2318 98.9775 77.9067 99.2231C77.5815 99.4688 77.1723 99.5758 76.7685 99.5206Z"
				fill="#66BB6A"
			/>
			<path
				d="M49.1092 86.6863C49.1705 86.2428 49.0672 85.8464 48.7989 85.5008C48.5306 85.1551 48.0425 84.8048 47.3372 84.4576C46.353 84.0021 45.6592 83.4912 45.2602 82.9217C44.8575 82.3517 44.7118 81.6776 44.8188 80.9024C44.9282 80.1092 45.2486 79.492 45.7798 79.0509C46.3114 78.6062 46.9873 78.3946 47.8048 78.4082L47.9775 77.1571C48.0029 76.9732 48.1752 76.8427 48.3591 76.868L48.7665 76.9243C48.9504 76.9497 49.0809 77.122 49.0555 77.3059L48.8819 78.5642C49.6777 78.788 50.2619 79.214 50.6339 79.8459C50.9671 80.4136 51.0971 81.1223 51.0234 81.9756C51.0077 82.1424 50.8518 82.2605 50.6859 82.2376L49.9396 82.1346C49.7809 82.1127 49.6758 81.9696 49.6832 81.809C49.7197 81.2518 49.6228 80.7829 49.3924 80.402C49.1232 79.957 48.7148 79.6949 48.1667 79.6192C47.5935 79.5401 47.1332 79.6272 46.789 79.8847C46.4453 80.1385 46.2326 80.5354 46.1594 81.0654C46.0912 81.5593 46.1992 81.9747 46.4798 82.3111C46.7604 82.6474 47.2536 82.9874 47.9563 83.3269C48.659 83.6664 49.1959 84.0087 49.5707 84.3544C49.942 84.6996 50.2026 85.0736 50.3446 85.4826C50.4865 85.8917 50.5222 86.3522 50.4515 86.8642C50.339 87.6791 50.0033 88.3014 49.4442 88.7313C48.8852 89.1612 48.1594 89.3623 47.2636 89.3305L47.1192 90.3761C47.0938 90.56 46.9215 90.6905 46.7376 90.6652L46.3338 90.6094C46.1499 90.584 46.0194 90.4117 46.0448 90.2278L46.1891 89.1822C45.3028 88.9754 44.6435 88.561 44.2122 87.932C43.8266 87.3717 43.6648 86.6807 43.7299 85.863C43.742 85.6956 43.9015 85.578 44.0673 85.6009L44.8209 85.7049C44.9723 85.7258 45.0867 85.8555 45.0766 86.0084C45.0411 86.5583 45.155 87.0113 45.4182 87.3673C45.7217 87.7766 46.1939 88.0292 46.8429 88.1187C47.4739 88.2058 47.9924 88.1231 48.3988 87.8669C48.7991 87.6025 49.0366 87.2127 49.1092 86.6863Z"
				fill="white"
			/>
			<path
				d="M47.2186 89.6292L46.1901 89.1749L47.7967 78.4401L47.847 78.0759L48.8787 78.5601L47.2619 89.3155L47.2186 89.6292Z"
				fill="white"
			/>
			<path
				opacity="0.5"
				d="M64.8209 92.9113C68.5048 93.4197 71.9033 90.8455 72.4118 87.1617C72.9203 83.4778 70.3461 80.0792 66.6622 79.5707C62.9783 79.0622 59.5797 81.6364 59.0713 85.3203C58.5628 89.0042 61.137 92.4028 64.8209 92.9113Z"
				fill="#2E7D32"
			/>
			<path
				d="M74.7896 78.3741C74.8309 80.3639 76.1611 82.12 78.0653 82.6988L76.645 92.9891C74.6552 93.0304 72.899 94.3606 72.3202 96.2648L41.6621 92.0332C41.5198 90.136 40.216 88.5084 38.3963 87.9559L39.8167 77.6657C41.8909 77.625 43.7063 76.1854 44.2073 74.1529L74.7896 78.3741ZM75.5525 77.7445L43.6073 73.3352C43.6 73.415 43.5926 73.4949 43.5812 73.5778C43.2871 75.7087 41.3216 77.1973 39.1907 76.9032L37.5868 88.5239C39.6347 88.8066 41.0908 90.6353 40.9384 92.6718L72.8872 97.0816C73.1813 94.9507 75.1467 93.462 77.2776 93.7562L78.8816 82.1355C76.7471 81.8408 75.2584 79.8754 75.5525 77.7445Z"
				fill="#2E7D32"
			/>
			<path
				d="M55.8757 73.1216L63.8116 74.217L60.0204 101.684L52.0845 100.589L55.8757 73.1216Z"
				fill="#FFECB3"
			/>
			<path
				d="M52.6907 96.1972L60.6265 97.2926L60.0203 101.684L52.0845 100.589L52.6907 96.1972Z"
				fill="#FFC06C"
			/>
		</g>
	</g>
	<defs>
		<filter
			id="filter0_d_941_2903"
			x="0.0478516"
			y="0.432434"
			width="122.372"
			height="134.231"
			filterUnits="userSpaceOnUse"
			colorInterpolation-filters="sRGB"
		>
			<feFlood flood-opacity="0" result="BackgroundImageFix" />
			<feColorMatrix
				in="SourceAlpha"
				type="matrix"
				values="0 0 0 0 0 0 0 0 0 0 0 0 0 0 0 0 0 0 127 0"
				result="hardAlpha"
			/>
			<feOffset dx="1" dy="4" />
			<feGaussianBlur stdDeviation="8.5" />
			<feColorMatrix
				type="matrix"
				values="0 0 0 0 0 0 0 0 0 0 0 0 0 0 0 0 0 0 0.21 0"
			/>
			<feBlend
				mode="normal"
				in2="BackgroundImageFix"
				result="effect1_dropShadow_941_2903"
			/>
			<feBlend
				mode="normal"
				in="SourceGraphic"
				in2="effect1_dropShadow_941_2903"
				result="shape"
			/>
		</filter>
		<clipPath id="clip0_941_2903">
			<rect
				width="44.7723"
				height="44.7723"
				fill="white"
				transform="translate(54.5144 47.9629) rotate(-7.01504)"
			/>
		</clipPath>
		<clipPath id="clip1_941_2903">
			<rect
				width="59.4931"
				height="59.4931"
				fill="white"
				transform="translate(16.0479 48.4005) rotate(-35.9987)"
			/>
		</clipPath>
		<clipPath id="clip2_941_2903">
			<rect
				width="46.5886"
				height="46.5886"
				fill="white"
				transform="translate(38.0557 61.142) rotate(7.85871)"
			/>
		</clipPath>
	</defs>
</svg>
