<svg width="68" height="68" viewBox="0 0 68 68" fill="none" xmlns="http://www.w3.org/2000/svg">
<g clip-path="url(#clip0_1716_3556)">
<path d="M62.505 17.0887C64.4416 11.9721 64.3867 2.25933 46.0691 13.1312C27.4427 24.1891 7.38836 51.0983 8.55314 56.2571C9.46866 60.3033 26.0641 52.0552 35.3141 40.2668C36.0592 39.2999 43.6017 49.4563 42.457 50.4048C34.3077 57.8391 8.78034 66.5784 3.71965 61.2408C-2.10353 55.0674 22.2262 22.248 46.2204 9.83469C52.7832 6.4319 72.2665 -1.48346 62.505 17.0887Z" fill="#FFDD7D"/>
<path d="M61.7679 52.7923L47.9512 50.6568L38.375 60.8286L36.1059 47.0101L23.467 41.0245L35.975 34.591L37.8108 20.7606L47.6691 30.6228L61.4015 28.0495L55.1254 40.4749L61.7679 52.7923Z" fill="#FFD05A"/>
</g>
<defs>
<clipPath id="clip0_1716_3556">
<rect width="64" height="64" fill="white" transform="translate(3.50024 0.566895) rotate(2.62692)"/>
</clipPath>
</defs>
</svg>
