<svg
	width="22"
	height="15"
	viewBox="0 0 22 15"
	fill="none"
	xmlns="http://www.w3.org/2000/svg"
>
	<rect width="22" height="15" rx="2" fill="white" />
	<path
		d="M9.42871 14.375L21.3716 10.7812V11.375C21.3716 13.0319 20.0284 14.375 18.3716 14.375H9.42871Z"
		fill="#FD6020"
	/>
	<path
		fillRule="evenodd"
		clipRule="evenodd"
		d="M19.1047 5.69427C19.7618 5.69427 20.1231 5.99649 20.1231 6.56734C20.156 7.00387 19.8603 7.37324 19.4661 7.4404L20.3531 8.68284H19.6632L18.9076 7.47398H18.8419V8.68284H18.2834V5.69427H19.1047ZM18.8419 7.07104H19.0062C19.3675 7.07104 19.5318 6.90314 19.5318 6.60093C19.5318 6.3323 19.3675 6.1644 19.0062 6.1644H18.8419V7.07104ZM16.3451 8.68284H17.922V8.17915H16.9036V7.37324H17.8892V6.86955H16.9036V6.19797H17.922V5.69427H16.3451V8.68284ZM14.7025 7.70904L13.9469 5.69427H13.3556L14.5711 8.75H14.8668L16.0823 5.69427H15.491L14.7025 7.70904ZM8.03356 7.20535C8.03356 8.04483 8.6906 8.75 9.51191 8.75C9.77472 8.75 10.0047 8.68284 10.2347 8.5821V7.91052C10.0704 8.11199 9.84043 8.24631 9.57761 8.24631C9.05198 8.24631 8.6249 7.84336 8.6249 7.30609V7.23893C8.59205 6.70166 9.01912 6.23155 9.54476 6.19797C9.80757 6.19797 10.0704 6.33229 10.2347 6.53376V5.86218C10.0375 5.72786 9.77472 5.69428 9.54476 5.69428C8.6906 5.62712 8.03356 6.33229 8.03356 7.20535ZM7.01514 6.83598C6.68662 6.70166 6.58806 6.6345 6.58806 6.4666C6.62092 6.26513 6.78518 6.09723 6.98229 6.13081C7.14655 6.13081 7.31081 6.23155 7.44222 6.36587L7.73789 5.96291C7.50792 5.76144 7.21226 5.62712 6.91659 5.62712C6.45666 5.59354 6.06243 5.96291 6.02958 6.43303V6.4666C6.02958 6.86956 6.19384 7.10461 6.71947 7.27251C6.85088 7.30609 6.98229 7.37325 7.1137 7.44041C7.21226 7.50756 7.27796 7.6083 7.27796 7.74262C7.27796 7.97768 7.08085 8.17915 6.88373 8.17915H6.85088C6.58806 8.17915 6.3581 8.01125 6.25954 7.7762L5.89817 8.14557C6.09528 8.51495 6.48951 8.71642 6.88373 8.71642C7.40937 8.75 7.83645 8.34705 7.8693 7.80978V7.70904C7.83645 7.30609 7.67218 7.10461 7.01514 6.83598ZM5.10972 8.68284H5.66821V5.69427H5.10972V8.68284ZM2.5144 5.69428H3.33571H3.49997C4.28842 5.72786 4.91261 6.39945 4.87976 7.20536C4.87976 7.64189 4.68264 8.04484 4.35412 8.34705C4.05845 8.58211 3.69708 8.71643 3.33571 8.68285H2.5144V5.69428ZM3.23715 8.17915C3.49997 8.21272 3.79564 8.11199 3.99275 7.94409C4.18986 7.74261 4.28842 7.47398 4.28842 7.17177C4.28842 6.90313 4.18986 6.6345 3.99275 6.43302C3.79564 6.26512 3.49997 6.16438 3.23715 6.19796H3.07289V8.17915H3.23715Z"
		fill="black"
	/>
	<path
		fillRule="evenodd"
		clipRule="evenodd"
		d="M11.9101 5.625C11.0888 5.625 10.3989 6.29659 10.3989 7.16965C10.3989 8.00913 11.056 8.7143 11.9101 8.74788C12.7643 8.78146 13.4213 8.07629 13.4542 7.20323C13.4213 6.33017 12.7643 5.625 11.9101 5.625V5.625Z"
		fill="#FD6020"
	/>
</svg>
