<svg
	width="22"
	height="15"
	viewBox="0 0 22 15"
	fill="none"
	xmlns="http://www.w3.org/2000/svg"
>
	<rect width="22" height="15" rx="2" fill="white" />
	<path
		fillRule="evenodd"
		clipRule="evenodd"
		d="M11.1571 10.7231C10.4081 11.3658 9.43657 11.7537 8.37492 11.7537C6.00605 11.7537 4.08569 9.82212 4.08569 7.43937C4.08569 5.05661 6.00605 3.125 8.37492 3.125C9.43657 3.125 10.4081 3.51297 11.1571 4.15565C11.9061 3.51297 12.8777 3.125 13.9393 3.125C16.3082 3.125 18.2286 5.05661 18.2286 7.43937C18.2286 9.82212 16.3082 11.7537 13.9393 11.7537C12.8777 11.7537 11.9061 11.3658 11.1571 10.7231Z"
		fill="#ED0006"
	/>
	<path
		fillRule="evenodd"
		clipRule="evenodd"
		d="M11.1572 10.7231C12.0795 9.93175 12.6643 8.75425 12.6643 7.43937C12.6643 6.12448 12.0795 4.94698 11.1572 4.15565C11.9062 3.51297 12.8778 3.125 13.9394 3.125C16.3083 3.125 18.2287 5.05661 18.2287 7.43937C18.2287 9.82212 16.3083 11.7537 13.9394 11.7537C12.8778 11.7537 11.9062 11.3658 11.1572 10.7231Z"
		fill="#F9A000"
	/>
	<path
		fillRule="evenodd"
		clipRule="evenodd"
		d="M11.1572 4.15564C12.0794 4.94697 12.6642 6.12447 12.6642 7.43934C12.6642 8.75422 12.0794 9.93171 11.1572 10.723C10.2349 9.93171 9.65015 8.75422 9.65015 7.43934C9.65015 6.12447 10.2349 4.94697 11.1572 4.15564Z"
		fill="#FF5E00"
	/>
</svg>